<svg width="33" height="33" viewBox="0 0 33 33" fill="none" xmlns="http://www.w3.org/2000/svg">
<path d="M26.1251 16.1565V16.8439C26.1251 17.2236 25.8174 17.5315 25.4377 17.5315H17.5315V25.4377C17.5315 25.8173 17.2236 26.1252 16.8439 26.1252H16.1565C15.7768 26.1252 15.469 25.8173 15.469 25.4377V17.5315H7.56275C7.18306 17.5315 6.87525 17.2236 6.87525 16.8439V16.1565C6.87525 15.7768 7.18306 15.469 7.56275 15.469H15.469V7.56274C15.469 7.18305 15.7768 6.87525 16.1565 6.87525H16.8439C17.2236 6.87525 17.5315 7.18305 17.5315 7.56274V15.469H25.4377C25.8174 15.469 26.1251 15.7768 26.1251 16.1565Z" fill="#322D2D"/>
</svg>
