<svg width="16" height="16" viewBox="0 0 16 16" fill="none" xmlns="http://www.w3.org/2000/svg">
<path d="M7.7384 1.20282C7.85088 0.932393 8.23396 0.932393 8.34644 1.20282L10.1425 5.52111C10.1899 5.63512 10.2972 5.71301 10.4202 5.72288L15.0822 6.09664C15.3742 6.12004 15.4925 6.48438 15.2701 6.67492L11.7182 9.71752C11.6244 9.79784 11.5835 9.92389 11.6121 10.044L12.6973 14.5932C12.7653 14.8782 12.4553 15.1034 12.2054 14.9507L8.21405 12.5128C8.10869 12.4485 7.97615 12.4485 7.87079 12.5128L3.87949 14.9507C3.62954 15.1034 3.31962 14.8782 3.38757 14.5932L4.47274 10.044C4.5014 9.92389 4.46044 9.79784 4.36667 9.71752L0.814747 6.67492C0.592311 6.48438 0.710693 6.12004 1.00264 6.09664L5.66461 5.72288C5.78768 5.71301 5.8949 5.63512 5.94232 5.52111L7.7384 1.20282Z" fill="#DEA453"/>
</svg>
