<svg width="45" height="45" viewBox="0 0 45 45" fill="none" xmlns="http://www.w3.org/2000/svg">
<circle cx="22.4998" cy="22.4998" r="21.4198" stroke="#322D2D" stroke-width="2.16"/>
<g clip-path="url(#clip0_625_1873)">
<path d="M32.4597 22.936L30.1739 16.4722C29.1176 13.4857 26.4197 11.4019 23.312 11.0913V9.43488H21.696V11.0913C18.5884 11.4019 15.8905 13.4858 14.8341 16.4723L12.5483 22.9359C12.1486 24.0661 11.9459 25.2508 11.9459 26.4571C11.9459 32.2789 16.6823 37.0152 22.504 37.0152C28.3258 37.0152 33.0621 32.2789 33.0621 26.4571C33.0621 25.2508 32.8594 24.0661 32.4597 22.936ZM22.504 35.3992C17.5733 35.3992 13.562 31.3878 13.562 26.4571C13.562 25.4349 13.7335 24.4315 14.0719 23.4748L16.3577 17.0111C17.2767 14.4127 19.7467 12.667 22.504 12.667C25.2614 12.667 27.7314 14.4127 28.6504 17.0111L30.9362 23.4748C31.2745 24.4315 31.4461 25.4348 31.4461 26.4571C31.4461 31.3878 27.4347 35.3992 22.504 35.3992Z" fill="#322D2D"/>
<path d="M22.5067 20.7469C19.3582 20.7469 16.7967 23.3084 16.7967 26.4569C16.7967 29.6054 19.3582 32.1669 22.5067 32.1669C25.6552 32.1669 28.2167 29.6054 28.2167 26.4569C28.2167 23.3084 25.6552 20.7469 22.5067 20.7469ZM22.5067 30.5508C20.2493 30.5508 18.4128 28.7143 18.4128 26.4569C18.4128 24.1995 20.2493 22.3629 22.5067 22.3629C24.7641 22.3629 26.6007 24.1995 26.6007 26.4569C26.6007 28.7143 24.7641 30.5508 22.5067 30.5508Z" fill="#322D2D"/>
</g>
<defs>
<clipPath id="clip0_625_1873">
<rect width="27.3625" height="27.3625" fill="white" transform="translate(8.71336 9.43488) scale(1.00796)"/>
</clipPath>
</defs>
</svg>
