<svg width="51" height="51" viewBox="0 0 51 51" fill="none" xmlns="http://www.w3.org/2000/svg">
<path fill-rule="evenodd" clip-rule="evenodd" d="M44.6637 13.416C44.5948 13.284 44.4992 13.1677 44.3831 13.0745C44.2669 12.9814 44.1327 12.9133 43.9889 12.8746C43.8451 12.8359 43.6949 12.8275 43.5476 12.8499C43.4004 12.8722 43.2594 12.9249 43.1336 13.0045C43.0078 13.0841 42.8998 13.189 42.8166 13.3125C42.7333 13.436 42.6766 13.5754 42.65 13.7219C42.6234 13.8684 42.6275 14.0188 42.662 14.1637C42.6965 14.3086 42.7606 14.4447 42.8504 14.5635C44.806 17.6667 45.8938 21.2376 46.0003 24.904C46.1068 28.5705 45.2283 32.1985 43.4561 35.41C41.684 38.6216 39.0831 41.2992 35.9245 43.1639C32.7658 45.0287 29.1649 46.0123 25.4968 46.0124C20.432 46.0178 15.5474 44.1337 11.7981 40.7284L13.7814 38.7452C14.0131 38.9899 14.2919 39.1851 14.6012 39.319C14.9104 39.4529 15.2435 39.5228 15.5805 39.5243H35.4132C36.0789 39.5216 36.718 39.2629 37.1981 38.8018C37.6682 38.3264 37.9327 37.6854 37.9348 37.0169V19.0258C37.934 18.8027 37.8648 18.5851 37.7364 18.4025L36.3198 16.2918L41.5755 10.9794C41.6766 10.8793 41.7568 10.7602 41.8116 10.6289C41.8663 10.4976 41.8945 10.3567 41.8945 10.2145C41.8945 10.0722 41.8663 9.93134 41.8116 9.80004C41.7568 9.66874 41.6766 9.54959 41.5755 9.44948C37.6465 5.44125 32.37 3.03336 26.7677 2.69198C21.1653 2.35061 15.6355 4.10003 11.2489 7.60156C6.8623 11.1031 3.93089 16.1076 3.02219 21.6464C2.1135 27.1851 3.29216 32.8639 6.32999 37.5835C6.3989 37.7155 6.49446 37.8318 6.6106 37.925C6.72675 38.0182 6.86096 38.0863 7.00477 38.125C7.14857 38.1636 7.29883 38.1721 7.44606 38.1497C7.59328 38.1273 7.73427 38.0747 7.8601 37.9951C7.98593 37.9154 8.09388 37.8106 8.17712 37.6871C8.26035 37.5636 8.31707 37.4242 8.34368 37.2777C8.3703 37.1312 8.36622 36.9807 8.33173 36.8359C8.29723 36.691 8.23306 36.5549 8.14326 36.4361C6.18765 33.3328 5.09993 29.762 4.9934 26.0955C4.88687 22.429 5.76544 18.8011 7.53757 15.5895C9.3097 12.378 11.9106 9.70037 15.0692 7.83563C18.2279 5.97089 21.8288 4.98723 25.4968 4.98713C30.5617 4.98173 35.4463 6.86589 39.1956 10.2711L34.9457 14.521L33.6424 12.6652C33.5356 12.5281 33.4007 12.4155 33.2468 12.3349C33.0928 12.2543 32.9234 12.2075 32.7499 12.1977H18.2154C18.04 12.1982 17.8673 12.2409 17.712 12.3223C17.5566 12.4036 17.4232 12.5213 17.323 12.6652L13.2856 18.4167C13.1794 18.6095 13.112 18.8213 13.0873 19.04V36.3794L9.48905 40.006C9.38797 40.1061 9.30773 40.2252 9.25297 40.3565C9.19821 40.4878 9.17001 40.6287 9.17001 40.7709C9.17001 40.9132 9.19821 41.0541 9.25297 41.1854C9.30773 41.3167 9.38797 41.4358 9.48905 41.5359C13.4368 45.4534 18.6871 47.7826 24.2407 48.0805C29.7943 48.3783 35.2635 46.6238 39.6076 43.151C43.9517 39.6782 46.8673 34.7295 47.7996 29.2466C48.7319 23.7637 47.6158 18.1294 44.6637 13.416ZM15.2405 37.0169V20.1025H27.6501V37.371H15.5805C15.4902 37.3641 15.4056 37.3242 15.3429 37.2589C15.2802 37.1935 15.2437 37.1074 15.2405 37.0169ZM35.7532 37.0169C35.7495 37.1121 35.7091 37.2022 35.6404 37.2682C35.5717 37.3343 35.4801 37.3711 35.3848 37.371H29.8175V19.3658L32.7783 15.116L35.7532 19.3658V37.0169ZM18.7537 14.351H30.6958L28.1601 17.9492H16.2463L18.7537 14.351Z" fill="#322D2D"/>
<path fill-rule="evenodd" clip-rule="evenodd" d="M22.6617 17.1989C22.8724 17.1988 23.0784 17.1362 23.2534 17.0188C23.4284 16.9014 23.5646 16.7346 23.6445 16.5396C23.7245 16.3447 23.7447 16.1303 23.7026 15.9239C23.6604 15.7174 23.5578 15.5281 23.4078 15.3801C23.2578 15.2321 23.0672 15.132 22.8601 15.0926C22.6531 15.0533 22.4391 15.0763 22.2452 15.1589C22.0513 15.2415 21.8864 15.3799 21.7713 15.5565C21.6563 15.7331 21.5964 15.9398 21.5992 16.1506C21.6029 16.4299 21.7165 16.6965 21.9154 16.8927C22.1142 17.0889 22.3823 17.1989 22.6617 17.1989Z" fill="#322D2D"/>
</svg>
