<svg width="46" height="46" viewBox="0 0 46 46" fill="none" xmlns="http://www.w3.org/2000/svg">
<g clip-path="url(#clip0_625_1537)">
<path d="M9.32796 12.2498C11.3324 12.5306 13.1697 13.3608 14.641 14.6505C17.1385 16.8396 20.3513 18.1229 23.6879 18.2642C23.8927 18.2729 24.097 18.2773 24.3015 18.2772C27.474 18.2772 30.5887 17.2379 33.1325 15.3194C34.1637 14.5417 35.0782 13.6391 35.8649 12.6315C36.7595 13.4368 37.5765 14.329 38.296 15.2928C38.4724 15.529 38.7428 15.6538 39.0165 15.6538C39.2034 15.6538 39.3919 15.5957 39.5533 15.4753C39.9509 15.1785 40.0325 14.6156 39.7357 14.218C38.7934 12.9557 37.6983 11.8057 36.4879 10.7958C35.9956 9.3388 35.2739 7.96554 34.3396 6.71041C32.4224 4.13475 29.7761 2.30182 26.6869 1.4097C23.6986 0.546861 20.4508 0.657444 17.5416 1.72132C17.0756 1.89164 16.836 2.40755 17.0064 2.87351C17.1768 3.33937 17.6926 3.57905 18.1586 3.40864C20.7122 2.47474 23.5639 2.3779 26.1884 3.13582C28.8973 3.91807 31.2176 5.52508 32.8984 7.78318C33.1347 8.10056 33.3534 8.42736 33.5583 8.76091C33.3029 8.6152 33.0454 8.47345 32.7839 8.33933C30.17 6.99904 27.3622 6.26682 24.4273 6.1548L22.3835 4.35295C22.0113 4.02488 21.4438 4.06055 21.1156 4.43272C20.7875 4.80489 20.8232 5.37254 21.1954 5.70061L21.7867 6.22181C20.4221 6.34632 19.0775 6.6089 17.7706 7.00721C17.2961 7.15184 17.0285 7.65382 17.1733 8.1284C17.3178 8.60299 17.8203 8.87068 18.2944 8.72579C20.0174 8.20063 21.8136 7.93437 23.6332 7.93437C25.213 7.93437 26.7541 8.13146 28.2452 8.51917L26.0854 10.2905C25.7018 10.6051 25.6458 11.1711 25.9604 11.5548C26.1381 11.7714 26.3958 11.8835 26.6555 11.8835C26.8559 11.8835 27.0576 11.8167 27.2247 11.6797L30.275 9.17818C30.8469 9.40213 31.4106 9.6542 31.9642 9.93807C32.84 10.3871 33.6792 10.9107 34.4733 11.497C33.7778 12.3931 32.9661 13.1944 32.0505 13.885C29.6743 15.6772 26.731 16.5948 23.7637 16.4693C20.8349 16.3453 18.0157 15.2196 15.8251 13.2995C14.3577 12.0133 12.5862 11.1152 10.652 10.6693C11.0473 9.68492 11.5606 8.75732 12.1841 7.90176C12.4762 7.50084 12.3881 6.93885 11.9872 6.64672C11.5862 6.35467 11.0242 6.44271 10.732 6.84372C9.7941 8.13101 9.07518 9.56023 8.59529 11.0918C8.51642 11.3437 8.55227 11.6175 8.69339 11.8405C8.83452 12.0634 9.06655 12.2132 9.32796 12.2498Z" fill="#1A1A1A"/>
<path d="M17.9201 37.4552C18.5672 34.1978 18.0722 30.7737 16.5262 27.8135C14.9589 24.8124 12.3761 22.4305 9.25361 21.1066C8.0646 20.6025 6.826 20.2597 5.56 20.0822C5.81009 18.9055 6.17409 17.7526 6.64876 16.6482C6.84468 16.1924 6.63394 15.6641 6.17822 15.4682C5.72196 15.2721 5.19402 15.483 4.9981 15.9388C4.3761 17.3861 3.92766 18.9094 3.65825 20.4626C2.6427 21.6173 1.81418 22.9291 1.19434 24.3658C-0.35274 27.9516 -0.403316 31.9327 1.05187 35.5759C2.5146 39.2382 5.31763 42.1078 8.94468 43.6562C10.7675 44.4344 12.6979 44.8275 14.6474 44.8275C15.7177 44.8275 16.7941 44.709 17.8608 44.4705C18.1183 44.4129 18.3377 44.2449 18.4602 44.0112C18.5829 43.7774 18.5966 43.5015 18.4976 43.2569C17.7387 41.3803 17.5389 39.3742 17.9201 37.4552ZM9.65013 42.0037C6.46577 40.6443 4.00465 38.1247 2.72041 34.9093C1.44372 31.713 1.48765 28.2213 2.84402 25.0774C3.00077 24.7141 3.17433 24.3612 3.36082 24.017C3.36235 24.311 3.36828 24.605 3.38292 24.8984C3.52917 27.8323 4.29894 30.6302 5.6695 33.2278L5.13096 35.8987C5.03286 36.3851 5.34763 36.8588 5.83398 36.9568C5.8939 36.9689 5.95364 36.9747 6.01248 36.9747C6.43128 36.9747 6.80614 36.6802 6.89211 36.2538L7.04788 35.4813C7.83795 36.6007 8.73771 37.6339 9.73601 38.5664C9.90921 38.7282 10.1294 38.8083 10.349 38.8083C10.5892 38.8083 10.8288 38.7125 11.0057 38.5231C11.3445 38.1606 11.325 37.5921 10.9625 37.2535C9.64627 36.0238 8.51753 34.6014 7.60771 33.0257C6.81773 31.6575 6.21792 30.2243 5.80811 28.7391L8.42204 29.7239C8.52634 29.7633 8.63341 29.7819 8.73852 29.7819C9.10171 29.7819 9.4437 29.56 9.57925 29.2C9.75416 28.7358 9.5197 28.2175 9.05536 28.0426L5.3638 26.6518C5.27172 26.0445 5.20821 25.4302 5.17722 24.8089C5.12826 23.8258 5.16195 22.8372 5.27271 21.8565C6.39651 22.0108 7.49641 22.313 8.55221 22.7606C11.2923 23.9223 13.5585 26.0122 14.9336 28.6451C16.2906 31.2435 16.7253 34.248 16.1577 37.1051C15.7776 39.0191 15.8855 41.0022 16.4666 42.9004C14.1504 43.2317 11.8131 42.9271 9.65013 42.0037Z" fill="#1A1A1A"/>
<path d="M45.8875 27.8839C45.5196 24.8359 44.2219 22.025 42.1346 19.7552C41.9559 19.5608 41.6989 19.4547 41.4371 19.4657C41.1733 19.4763 40.9277 19.6024 40.7653 19.8104C39.5198 21.4059 37.8823 22.5819 36.0297 23.2113C32.8852 24.2796 30.1673 26.4203 28.3767 29.2393C26.5613 32.0972 25.7899 35.525 26.2047 38.8911C26.3626 40.1729 26.685 41.4169 27.1643 42.602C26.0202 42.9738 24.8398 43.2351 23.6459 43.3761C23.1533 43.4343 22.801 43.881 22.8593 44.3736C22.9132 44.8305 23.3012 45.1666 23.7502 45.1666C23.7854 45.1666 23.821 45.1645 23.8568 45.1603C25.4218 44.9753 26.9657 44.6018 28.446 44.0582C29.3889 44.247 30.348 44.3429 31.3147 44.3429C31.8934 44.3429 32.4748 44.3089 33.0567 44.241C36.9356 43.7879 40.4086 41.8412 42.8362 38.7594C45.2765 35.6614 46.3601 31.799 45.8875 27.8839ZM41.4249 37.6476C39.2951 40.3514 36.2492 42.0592 32.8483 42.4565C32.4553 42.5024 32.0629 42.5286 31.6715 42.5392C31.9254 42.3909 32.177 42.2388 32.4238 42.0794C34.8915 40.4859 36.9296 38.4203 38.494 35.9345L41.0764 35.0655C41.5465 34.9072 41.7995 34.3978 41.6412 33.9276C41.483 33.4575 40.9738 33.2043 40.5033 33.3627L39.7564 33.6142C40.3308 32.3703 40.7756 31.0745 41.0841 29.7436C41.1962 29.2603 40.8952 28.7776 40.4119 28.6656C39.9287 28.5535 39.446 28.8545 39.334 29.3378C38.9271 31.0928 38.2596 32.7815 37.35 34.3571C36.56 35.7253 35.6187 36.9613 34.5374 38.0588L34.0833 35.3027C34.0026 34.8132 33.5418 34.4818 33.0509 34.5623C32.5614 34.6429 32.2299 35.1051 32.3106 35.5947L32.9519 39.4871C32.472 39.8705 31.9718 40.2326 31.4492 40.5701C30.6223 41.1041 29.7494 41.5692 28.8446 41.9636C28.4163 40.9133 28.1281 39.8096 27.9879 38.6714C27.6239 35.7176 28.3006 32.71 29.8933 30.2027C31.4651 27.7283 33.8496 25.8496 36.6077 24.9125C38.4553 24.2848 40.1189 23.1997 41.4722 21.7475C42.9176 23.588 43.8221 25.7644 44.1039 28.0992C44.5187 31.5366 43.5673 34.9277 41.4249 37.6476Z" fill="#1A1A1A"/>
<path d="M14.2943 5.39379C14.7905 5.39379 15.1927 4.9916 15.1927 4.49547C15.1927 3.99935 14.7905 3.59715 14.2943 3.59715C13.7982 3.59715 13.396 3.99935 13.396 4.49547C13.396 4.9916 13.7982 5.39379 14.2943 5.39379Z" fill="#1A1A1A"/>
</g>
<defs>
<clipPath id="clip0_625_1537">
<rect width="45.981" height="45.981" fill="white" transform="scale(1.0004)"/>
</clipPath>
</defs>
</svg>
