<svg width="45" height="45" viewBox="0 0 45 45" fill="none" xmlns="http://www.w3.org/2000/svg">
<circle cx="22.4998" cy="22.4998" r="21.4198" stroke="#322D2D" stroke-width="2.16"/>
<g clip-path="url(#clip0_697_226)">
<path d="M31.6469 9.89949C31.2689 9.92649 30.9179 10.1245 30.7829 10.4845C30.1529 12.1675 27.606 13.2745 24.915 14.4354C19.803 16.6494 12.8281 19.6644 14.7991 29.2583C13.4581 30.7253 12.3691 32.5792 11.8381 35.1442C11.7391 35.6302 12.0541 36.1072 12.5401 36.2062C12.6031 36.2152 12.6661 36.2242 12.7201 36.2242C13.1341 36.2242 13.5121 35.9362 13.6021 35.5042C14.0341 33.4342 14.8531 31.9132 15.9151 30.6803C17.0401 31.4002 19.362 32.6242 22.26 32.6242C24.33 32.6242 26.697 32.0032 29.1269 30.1403C36.8938 24.1823 32.6549 11.0695 32.4749 10.5115C32.3669 10.1515 32.0339 9.89949 31.6469 9.89949ZM28.0469 28.7093C23.331 32.3272 19.038 30.4913 17.2381 29.3933C18.3631 28.4303 19.641 27.6383 20.955 26.8373C23.574 25.2263 26.283 23.5613 27.525 20.3394C27.705 19.8714 27.471 19.3584 27.012 19.1784C26.544 18.9984 26.031 19.2324 25.851 19.6914C24.825 22.3464 22.485 23.7773 20.019 25.2983C18.822 26.0363 17.5621 26.8103 16.3921 27.7643C15.4291 20.5104 20.604 18.2604 25.644 16.0824C27.831 15.1374 29.9279 14.2284 31.2689 12.9145C32.0879 16.5684 33.2129 24.7403 28.0469 28.7093Z" fill="#322D2D"/>
</g>
<defs>
<clipPath id="clip0_697_226">
<rect width="27.3625" height="27.3625" fill="white" transform="translate(8.71336 9.43488) scale(1.00796)"/>
</clipPath>
</defs>
</svg>
