<svg width="46" height="46" viewBox="0 0 46 46" fill="none" xmlns="http://www.w3.org/2000/svg">
<g clip-path="url(#clip0_625_1522)">
<path d="M32.5194 34.9202C32.4676 34.2405 31.9274 33.7003 31.2476 33.6484C30.4872 33.7063 29.9179 34.3696 29.9757 35.1299C30.0275 35.8097 30.5677 36.3499 31.2476 36.4018C32.008 36.3439 32.5773 35.6805 32.5194 34.9202Z" fill="#1A1A1A"/>
<path d="M35.8797 33.7372C35.828 33.0575 35.2878 32.5173 34.6079 32.4654C33.8475 32.5233 33.2782 33.1867 33.336 33.9469C33.3878 34.6267 33.928 35.1669 34.6079 35.2188C35.3683 35.1609 35.9376 34.4975 35.8797 33.7372Z" fill="#1A1A1A"/>
<path d="M45.9937 12.7369V12.673C45.9762 12.6286 45.9549 12.5859 45.9298 12.5453L45.8819 12.4815L45.7862 12.3777L45.7303 12.3299L45.6266 12.282H45.5867L28.2522 5.19498C28.0603 5.11736 27.8456 5.11736 27.6537 5.19498L10.3592 12.1623H10.3192L10.2155 12.2101L10.1596 12.258L10.0639 12.3618L10.016 12.4256C9.99094 12.4662 9.96959 12.5089 9.95213 12.5533V12.6172C9.94375 12.6834 9.94375 12.7505 9.95213 12.8167V19.2014H0.798086C0.357343 19.2014 0 19.5587 0 19.9995C0 20.4402 0.357343 20.7976 0.798086 20.7976V20.9013H9.85636V23.6308H6.7518C6.31106 23.6308 5.95372 23.9881 5.95372 24.4288C5.95372 24.8696 6.31106 25.2269 6.7518 25.2269H9.85636V27.9564H2.49801C2.05727 27.9564 1.69992 28.3137 1.69992 28.7545C1.69992 29.1952 2.05727 29.5526 2.49801 29.5526H9.85636V32.8885C9.85795 33.2108 10.0532 33.5004 10.3512 33.6228L27.6537 40.8056C27.7402 40.8399 27.832 40.8587 27.925 40.8614C28.018 40.8587 28.1099 40.8399 28.1964 40.8056L45.4989 33.6228C45.7968 33.5004 45.9921 33.2108 45.9937 32.8885V12.9364C46.0021 12.8702 46.0021 12.8031 45.9937 12.7369ZM27.949 6.81509L34.5092 9.44079L19.585 15.7537L12.7614 12.9125L27.949 6.81509ZM27.1269 38.8822L11.4525 32.3538V29.5446H14.7646C15.2053 29.5446 15.5627 29.1872 15.5627 28.7465C15.5627 28.3057 15.2053 27.9484 14.7646 27.9484H11.4525V25.2189H19.0343C19.4751 25.2189 19.8324 24.8616 19.8324 24.4209C19.8324 23.9801 19.4751 23.6228 19.0343 23.6228H11.4525V20.9013H13.0487C13.4894 20.9013 13.8468 20.544 13.8468 20.1032C13.8468 19.6625 13.4894 19.3051 13.0487 19.3051H11.4525V14.1016L17.5499 16.6236L27.1269 20.614V38.8822ZM27.9569 19.2652L21.6521 16.6236L36.5922 10.2868L43.1285 12.9204L33.6074 16.9109L27.9569 19.2652ZM28.747 38.8822V20.614L33.2403 18.7465L44.4135 14.0857L44.4534 32.3538L28.747 38.8822Z" fill="#1A1A1A"/>
</g>
<defs>
<clipPath id="clip0_625_1522">
<rect width="45.7197" height="45.7197" fill="white" transform="scale(1.00613)"/>
</clipPath>
</defs>
</svg>
