<svg width="46" height="46" viewBox="0 0 46 46" fill="none" xmlns="http://www.w3.org/2000/svg">
<g clip-path="url(#clip0_625_1493)">
<g clip-path="url(#clip1_625_1493)">
<path d="M31.0594 5.24092C27.9082 5.24092 24.9621 6.42771 22.6757 8.60034C20.3894 6.42771 17.4432 5.24092 14.2921 5.24092C7.48192 5.24092 1.94152 10.9144 1.94152 17.8881C1.94152 21.9311 5.3872 26.9695 12.183 32.8633C17.1516 37.1724 22.1901 40.3975 22.2404 40.4295C22.3731 40.5142 22.5244 40.5565 22.6757 40.5565C22.827 40.5565 22.9783 40.5141 23.1111 40.4295C23.1614 40.3974 28.1999 37.1723 33.1685 32.8632C39.9642 26.9694 43.4099 21.931 43.4099 17.8881C43.4099 10.9144 37.8695 5.24092 31.0594 5.24092ZM32.1211 31.6274C28.0808 35.1331 23.9911 37.9098 22.6757 38.7791C21.3623 37.9113 17.2834 35.1423 13.2443 31.6394C6.90963 26.1456 3.56138 21.3904 3.56138 17.8881C3.56138 11.8075 8.3752 6.86078 14.2921 6.86078C17.2666 6.86078 20.0326 8.08328 22.0804 10.3031C22.2337 10.4693 22.4496 10.5638 22.6757 10.5638C22.9019 10.5638 23.1177 10.4693 23.271 10.3031C25.3189 8.08337 28.0848 6.86086 31.0594 6.86086C36.9763 6.86078 41.7901 11.8075 41.7901 17.8881C41.7901 21.3877 38.4466 26.1386 32.1211 31.6274Z" fill="#1A1A1A"/>
<path d="M30.0771 9.72086L30.0466 9.72613C29.6062 9.80437 29.3126 10.2248 29.3908 10.6652C29.4606 11.0577 29.8021 11.3336 30.1873 11.3336C30.2344 11.3336 30.2821 11.3295 30.3299 11.321L30.346 11.3182C30.7871 11.2439 31.0845 10.8262 31.0102 10.3851C30.9359 9.94384 30.5178 9.64684 30.0771 9.72086Z" fill="#1A1A1A"/>
<path d="M37.5039 12.8051C36.5095 11.439 35.097 10.4215 33.5267 9.93995C33.099 9.80866 32.6461 10.0492 32.5149 10.4769C32.3838 10.9045 32.6242 11.3575 33.0518 11.4886C35.6403 12.2823 37.4481 14.8156 37.4481 17.6492C37.4481 18.0965 37.8107 18.4591 38.258 18.4591C38.7053 18.4591 39.0679 18.0965 39.0678 17.6491C39.0678 15.8856 38.527 14.2106 37.5039 12.8051Z" fill="#1A1A1A"/>
</g>
</g>
<defs>
<clipPath id="clip0_625_1493">
<rect width="42" height="41" fill="white" transform="translate(1.36378 2.73836) scale(1.00613)"/>
</clipPath>
<clipPath id="clip1_625_1493">
<rect width="41.2158" height="41.2158" fill="white" transform="translate(1.94545 2.16357) scale(1.00613)"/>
</clipPath>
</defs>
</svg>
