<svg width="51" height="51" viewBox="0 0 51 51" fill="none" xmlns="http://www.w3.org/2000/svg">
<path d="M15.1029 32.1441C15.5337 32.1535 15.962 32.0771 16.3628 31.9191C16.7637 31.7612 17.1291 31.525 17.4377 31.2243C17.7463 30.9237 17.9919 30.5645 18.1601 30.1679C18.3284 29.7713 18.416 29.3451 18.4178 28.9142V25.996C18.4178 25.7105 18.3044 25.4366 18.1025 25.2347C17.9005 25.0328 17.6267 24.9194 17.3412 24.9194H14.1679C13.8824 24.9194 13.6086 25.0328 13.4066 25.2347C13.2047 25.4366 13.0913 25.7105 13.0913 25.996C13.0913 26.2815 13.2047 26.5554 13.4066 26.7573C13.6086 26.9592 13.8824 27.0726 14.1679 27.0726H16.2362V28.9142C16.2255 29.1988 16.1067 29.4686 15.904 29.6686C15.7014 29.8686 15.4301 29.9839 15.1454 29.9909H11.9438C11.7076 29.9909 11.4736 29.9443 11.2554 29.8539C11.0371 29.7635 10.8387 29.631 10.6717 29.4639C10.5046 29.2969 10.3721 29.0985 10.2817 28.8803C10.1913 28.662 10.1447 28.428 10.1447 28.1918V22.8086C10.1447 22.3315 10.3343 21.8738 10.6717 21.5365C11.0091 21.1991 11.4667 21.0095 11.9438 21.0095H16.0095C16.2951 21.0095 16.5689 20.8961 16.7708 20.6942C16.9727 20.4923 17.0862 20.2184 17.0862 19.9329C17.0862 19.6473 16.9727 19.3735 16.7708 19.1716C16.5689 18.9697 16.2951 18.8562 16.0095 18.8562H11.9438C10.8956 18.8562 9.89031 19.2727 9.1491 20.0139C8.40788 20.7551 7.99148 21.7604 7.99148 22.8086V28.1918C7.99148 29.24 8.40788 30.2453 9.1491 30.9865C9.89031 31.7277 10.8956 32.1441 11.9438 32.1441H15.1029Z" fill="#322D2D"/>
<path d="M29.7487 32.1428C30.0342 32.1428 30.3081 32.0294 30.51 31.8275C30.7119 31.6256 30.8253 31.3517 30.8253 31.0662V19.9316C30.8285 19.6976 30.7553 19.4689 30.6169 19.2802C30.4784 19.0915 30.2823 18.9531 30.0582 18.8858C29.834 18.8186 29.5941 18.8262 29.3746 18.9075C29.1552 18.9889 28.9682 19.1395 28.8421 19.3366L25.4988 24.3656L22.1415 19.3366C22.0159 19.1423 21.8304 18.9942 21.6131 18.915C21.3957 18.8357 21.1585 18.8296 20.9373 18.8974C20.7167 18.9665 20.5237 19.1039 20.3862 19.2897C20.2487 19.4756 20.1738 19.7004 20.1723 19.9316V31.0662C20.1723 31.3517 20.2858 31.6256 20.4877 31.8275C20.6896 32.0294 20.9634 32.1428 21.249 32.1428C21.5345 32.1428 21.8084 32.0294 22.0103 31.8275C22.2122 31.6256 22.3256 31.3517 22.3256 31.0662V23.5014L24.6489 26.9155C24.7529 27.0561 24.8885 27.1704 25.0448 27.2491C25.201 27.3278 25.3735 27.3688 25.5484 27.3688C25.7234 27.3688 25.8959 27.3278 26.0521 27.2491C26.2083 27.1704 26.3439 27.0561 26.448 26.9155L28.7146 23.5156V31.0804C28.7213 31.3552 28.8316 31.6173 29.0234 31.8143C29.2151 32.0113 29.4742 32.1286 29.7487 32.1428Z" fill="#322D2D"/>
<path d="M44.6669 13.4153C44.598 13.2833 44.5024 13.167 44.3863 13.0738C44.2701 12.9807 44.1359 12.9126 43.9921 12.8739C43.8483 12.8352 43.6981 12.8268 43.5508 12.8492C43.4036 12.8715 43.2626 12.9242 43.1368 13.0038C43.0109 13.0834 42.903 13.1883 42.8198 13.3118C42.7365 13.4353 42.6798 13.5747 42.6532 13.7212C42.6266 13.8677 42.6307 14.0181 42.6652 14.163C42.6997 14.3079 42.7638 14.444 42.8536 14.5628C44.8092 17.666 45.897 21.2369 46.0035 24.9033C46.11 28.5698 45.2314 32.1978 43.4593 35.4093C41.6872 38.6209 39.0863 41.2985 35.9276 43.1632C32.769 45.028 29.1681 46.0116 25.5 46.0117C20.4352 46.0171 15.5506 44.133 11.8013 40.7277L16.1928 36.3362C16.2933 36.2358 16.373 36.1165 16.4274 35.9852C16.4817 35.854 16.5097 35.7133 16.5097 35.5712C16.5097 35.4292 16.4817 35.2885 16.4274 35.1572C16.373 35.026 16.2933 34.9067 16.1928 34.8063C16.0924 34.7058 15.9731 34.6261 15.8419 34.5718C15.7106 34.5174 15.5699 34.4894 15.4279 34.4894C15.2858 34.4894 15.1451 34.5174 15.0139 34.5718C14.8826 34.6261 14.7634 34.7058 14.6629 34.8063L9.49224 40.0053C9.39116 40.1054 9.31092 40.2245 9.25616 40.3558C9.2014 40.4871 9.1732 40.628 9.1732 40.7702C9.1732 40.9125 9.2014 41.0534 9.25616 41.1847C9.31092 41.316 9.39116 41.4351 9.49224 41.5352C13.44 45.4527 18.6903 47.7819 24.2439 48.0798C29.7975 48.3776 35.2667 46.6231 39.6108 43.1503C43.9549 39.6775 46.8705 34.7288 47.8028 29.2459C48.7351 23.763 47.619 18.1287 44.6669 13.4153Z" fill="#322D2D"/>
<path d="M4.98833 25.4987C4.99582 20.0607 7.15938 14.8476 11.0046 11.0023C14.8499 7.15709 20.063 4.99354 25.501 4.98604C30.5658 4.98064 35.4505 6.8648 39.1997 10.27L34.8082 14.6616C34.7077 14.762 34.628 14.8813 34.5736 15.0125C34.5193 15.1438 34.4913 15.2845 34.4913 15.4265C34.4913 15.5686 34.5193 15.7093 34.5736 15.8405C34.628 15.9718 34.7077 16.091 34.8082 16.1915C34.9086 16.292 35.0279 16.3716 35.1591 16.426C35.2904 16.4804 35.4311 16.5084 35.5731 16.5084C35.7152 16.5084 35.8559 16.4804 35.9871 16.426C36.1184 16.3716 36.2376 16.292 36.3381 16.1915L41.3813 11.1483C41.5038 11.0464 41.6043 10.9207 41.6767 10.7788C41.7491 10.6368 41.7919 10.4817 41.8025 10.3227C41.8131 10.1637 41.7912 10.0042 41.7383 9.85391C41.6854 9.70362 41.6025 9.56566 41.4946 9.44839C37.5446 5.53554 32.2943 3.21099 26.7421 2.9169C21.19 2.62281 15.7234 4.37969 11.3822 7.85337C7.04097 11.3271 4.12794 16.2752 3.19717 21.7567C2.2664 27.2381 3.38283 32.8705 6.33412 37.5824C6.40303 37.7145 6.49858 37.8307 6.61473 37.9239C6.73088 38.0171 6.86509 38.0852 7.0089 38.1239C7.1527 38.1625 7.30296 38.171 7.45018 38.1486C7.59741 38.1262 7.73839 38.0736 7.86423 37.994C7.99006 37.9143 8.09801 37.8095 8.18125 37.686C8.26448 37.5625 8.3212 37.4231 8.34781 37.2766C8.37442 37.1301 8.37035 36.9796 8.33585 36.8348C8.30136 36.6899 8.23718 36.5538 8.14739 36.435C6.08653 33.1593 4.99157 29.3687 4.98833 25.4987Z" fill="#322D2D"/>
<path d="M39.3003 18.8562H35.8154C35.1467 18.8562 34.5053 19.1219 34.0324 19.5948C33.5595 20.0677 33.2939 20.7091 33.2939 21.3778V29.6226C33.2939 30.2913 33.5595 30.9327 34.0324 31.4056C34.5053 31.8785 35.1467 32.1441 35.8154 32.1441H39.3003C39.9692 32.1436 40.6107 31.8788 41.0853 31.4075C41.3212 31.1744 41.508 30.8963 41.6345 30.5897C41.7611 30.2831 41.8248 29.9542 41.8219 29.6226V21.3778C41.8248 21.0462 41.7611 20.7173 41.6345 20.4107C41.508 20.1041 41.3212 19.826 41.0853 19.5929C40.6107 19.1215 39.9692 18.8568 39.3003 18.8562ZM39.6545 29.6226C39.6557 29.6708 39.6461 29.7187 39.6265 29.7628C39.6069 29.8069 39.5777 29.8461 39.5412 29.8775C39.5112 29.9123 39.4743 29.9404 39.4328 29.9599C39.3913 29.9794 39.3462 29.99 39.3003 29.9909H35.8154C35.7675 29.9902 35.7201 29.9799 35.6763 29.9604C35.6325 29.9409 35.5931 29.9127 35.5605 29.8775C35.5239 29.8461 35.4947 29.8069 35.4751 29.7628C35.4555 29.7187 35.446 29.6708 35.4471 29.6226V21.3778C35.4506 21.2813 35.4906 21.1896 35.5589 21.1213C35.6272 21.053 35.7189 21.013 35.8154 21.0095H39.3003C39.3462 21.0104 39.3913 21.0209 39.4328 21.0405C39.4743 21.06 39.5112 21.0881 39.5412 21.1228C39.5763 21.1554 39.6045 21.1949 39.624 21.2387C39.6435 21.2825 39.6538 21.3299 39.6545 21.3778V29.6226Z" fill="#322D2D"/>
</svg>
