<svg width="118" height="20" viewBox="0 0 118 20" fill="none" xmlns="http://www.w3.org/2000/svg">
<g clip-path="url(#clip0_625_2191)">
<path d="M9.22734 0.622905C9.57701 -0.207636 10.768 -0.207635 11.1176 0.622908L13.1814 5.52491C13.3289 5.87505 13.6622 6.11429 14.0448 6.14459L19.4016 6.56886C20.3092 6.64074 20.6773 7.75971 19.9858 8.3449L15.9045 11.7987C15.613 12.0455 15.4856 12.4326 15.5746 12.8014L16.8216 17.9656C17.0328 18.8406 16.0694 19.5322 15.2923 19.0633L10.7061 16.2959C10.3785 16.0982 9.96649 16.0982 9.63891 16.2959L5.05266 19.0633C4.27561 19.5322 3.31212 18.8406 3.52338 17.9656L4.77031 12.8014C4.85937 12.4326 4.73206 12.0455 4.44055 11.7987L0.359152 8.3449C-0.332353 7.75971 0.0356727 6.64074 0.943285 6.56886L6.30018 6.14459C6.68281 6.11429 7.01612 5.87505 7.16353 5.52491L9.22734 0.622905Z" fill="#00B67A"/>
<path d="M33.6399 0.622905C33.9896 -0.207636 35.1805 -0.207635 35.5302 0.622908L37.594 5.52491C37.7415 5.87505 38.0748 6.11429 38.4574 6.14459L43.8142 6.56886C44.7218 6.64074 45.0898 7.75971 44.3983 8.3449L40.317 11.7987C40.0255 12.0455 39.8981 12.4326 39.9872 12.8014L41.2341 17.9656C41.4454 18.8406 40.4819 19.5322 39.7049 19.0633L35.1186 16.2959C34.7911 16.0982 34.3791 16.0982 34.0515 16.2959L29.4652 19.0633C28.6882 19.5322 27.7247 18.8406 27.9359 17.9656L29.1829 12.8014C29.2719 12.4326 29.1446 12.0455 28.8531 11.7987L24.7717 8.3449C24.0802 7.75971 24.4482 6.64074 25.3559 6.56886L30.7128 6.14459C31.0954 6.11429 31.4287 5.87505 31.5761 5.52491L33.6399 0.622905Z" fill="#00B67A"/>
<path d="M58.0564 0.622905C58.4061 -0.207636 59.597 -0.207635 59.9467 0.622908L62.0105 5.52491C62.158 5.87505 62.4913 6.11429 62.8739 6.14459L68.2307 6.56886C69.1383 6.64074 69.5063 7.75971 68.8148 8.3449L64.7335 11.7987C64.442 12.0455 64.3146 12.4326 64.4037 12.8014L65.6506 17.9656C65.8619 18.8406 64.8984 19.5322 64.1214 19.0633L59.5351 16.2959C59.2076 16.0982 58.7956 16.0982 58.468 16.2959L53.8817 19.0633C53.1047 19.5322 52.1412 18.8406 52.3525 17.9656L53.5994 12.8014C53.6884 12.4326 53.5611 12.0455 53.2696 11.7987L49.1882 8.3449C48.4967 7.75971 48.8647 6.64074 49.7724 6.56886L55.1293 6.14459C55.5119 6.11429 55.8452 5.87505 55.9926 5.52491L58.0564 0.622905Z" fill="#00B67A"/>
<path d="M82.469 0.622905C82.8187 -0.207636 84.0096 -0.207635 84.3593 0.622908L86.423 5.52491C86.5705 5.87505 86.9039 6.11429 87.2865 6.14459L92.6433 6.56886C93.5509 6.64074 93.9189 7.75971 93.2274 8.3449L89.1461 11.7987C88.8546 12.0455 88.7272 12.4326 88.8163 12.8014L90.0632 17.9656C90.2745 18.8406 89.311 19.5322 88.5339 19.0633L83.9477 16.2959C83.6201 16.0982 83.2081 16.0982 82.8806 16.2959L78.2943 19.0633C77.5173 19.5322 76.5538 18.8406 76.765 17.9656L78.012 12.8014C78.101 12.4326 77.9737 12.0455 77.6822 11.7987L73.6008 8.3449C72.9093 7.75971 73.2773 6.64074 74.1849 6.56886L79.5418 6.14459C79.9245 6.11429 80.2578 5.87505 80.4052 5.52491L82.469 0.622905Z" fill="#00B67A"/>
<path d="M106.882 0.622905C107.231 -0.207636 108.422 -0.207635 108.772 0.622908L110.836 5.52491C110.983 5.87505 111.316 6.11429 111.699 6.14459L117.056 6.56886C117.963 6.64074 118.331 7.75971 117.64 8.3449L113.559 11.7987C113.267 12.0455 113.14 12.4326 113.229 12.8014L114.476 17.9656C114.687 18.8406 113.724 19.5322 112.947 19.0633L108.36 16.2959C108.033 16.0982 107.621 16.0982 107.293 16.2959L102.707 19.0633C101.93 19.5322 100.966 18.8406 101.178 17.9656L102.425 12.8014C102.514 12.4326 102.386 12.0455 102.095 11.7987L98.0134 8.3449C97.3219 7.75971 97.6899 6.64074 98.5975 6.56886L103.954 6.14459C104.337 6.11429 104.67 5.87505 104.818 5.52491L106.882 0.622905Z" fill="#00B67A"/>
</g>
<defs>
<clipPath id="clip0_625_2191">
<rect width="117.309" height="19.1021" fill="white" transform="scale(1.00589)"/>
</clipPath>
</defs>
</svg>
