<svg width="38" height="38" viewBox="0 0 38 38" fill="none" xmlns="http://www.w3.org/2000/svg">
<path d="M31.893 29.6568L26.7581 24.5219C28.3144 22.4846 29.1679 20.0136 29.1682 17.406C29.1682 14.2637 27.9444 11.3093 25.7221 9.08736C23.5001 6.86544 20.5461 5.6416 17.4034 5.6416C14.2611 5.6416 11.3066 6.86544 9.08469 9.08736C4.49781 13.6746 4.49781 21.1382 9.08469 25.7247C11.3066 27.947 14.2611 29.1709 17.4034 29.1709C20.0109 29.1705 22.4819 28.317 24.5192 26.7608L29.6541 31.8957C29.963 32.205 30.3685 32.3596 30.7736 32.3596C31.1787 32.3596 31.5842 32.205 31.893 31.8957C32.5115 31.2776 32.5115 30.2749 31.893 29.6568ZM11.3236 23.4858C7.97141 20.1336 7.97179 14.6789 11.3236 11.3263C12.9475 9.70276 15.1068 8.80827 17.4034 8.80827C19.7003 8.80827 21.8592 9.70276 23.4831 11.3263C25.107 12.9502 26.0015 15.1095 26.0015 17.406C26.0015 19.703 25.107 21.8619 23.4831 23.4858C21.8592 25.1097 19.7003 26.0042 17.4034 26.0042C15.1068 26.0042 12.9475 25.1097 11.3236 23.4858Z" fill="#322D2D"/>
</svg>
