<svg width="14" height="8" viewBox="0 0 14 8" fill="none" xmlns="http://www.w3.org/2000/svg">
<path d="M0.541306 3.45683C0.24132 3.45683 -0.00186672 3.70001 -0.00186675 4C-0.00186678 4.29999 0.24132 4.54317 0.541306 4.54317L0.541306 3.45683ZM13.8158 4.38408C14.0279 4.17196 14.0279 3.82804 13.8158 3.61592L10.3591 0.159189C10.1469 -0.052933 9.80303 -0.0529331 9.5909 0.159189C9.37878 0.371311 9.37878 0.715229 9.5909 0.927352L12.6636 4L9.5909 7.07265C9.37878 7.28477 9.37878 7.62869 9.5909 7.84081C9.80302 8.05293 10.1469 8.05293 10.3591 7.84081L13.8158 4.38408ZM0.541306 4.54317L13.4317 4.54317L13.4317 3.45683L0.541306 3.45683L0.541306 4.54317Z" fill="white"/>
</svg>
