<svg width="14" height="8" viewBox="0 0 14 8" fill="none" xmlns="http://www.w3.org/2000/svg">
<path d="M0.543381 3.45676C0.243358 3.45676 0.000140616 3.69998 0.00014059 4C0.000140563 4.30002 0.243358 4.54324 0.543381 4.54324L0.543381 3.45676ZM13.8195 4.38413C14.0317 4.17198 14.0317 3.82802 13.8195 3.61587L10.3624 0.158709C10.1502 -0.0534394 9.80626 -0.0534395 9.59411 0.158709C9.38196 0.370858 9.38196 0.714819 9.59411 0.926968L12.6671 4L9.59411 7.07303C9.38196 7.28518 9.38196 7.62914 9.59411 7.84129C9.80626 8.05344 10.1502 8.05344 10.3624 7.84129L13.8195 4.38413ZM0.543381 4.54324L13.4354 4.54324L13.4354 3.45676L0.543381 3.45676L0.543381 4.54324Z" fill="#667744"/>
</svg>
