<svg width="26" height="26" viewBox="0 0 26 26" fill="none" xmlns="http://www.w3.org/2000/svg">
<path d="M25.5538 18.1551L22.6339 15.2353C25.9831 8.20747 20.8353 0 13.0003 0C5.17888 0 0.0108269 8.19335 3.36666 15.2353L0.446792 18.1551C-0.365824 18.9677 -0.0203023 20.3546 1.08157 20.6901L4.32492 21.6753L5.31005 24.9186C5.64425 26.0161 7.02821 26.3687 7.84504 25.5534L12.1076 21.2908C12.6936 21.3394 13.287 21.3411 13.893 21.2908L18.1556 25.5534C18.9695 26.3673 20.3557 26.0183 20.6906 24.9186L21.6757 21.6753L24.9191 20.6901C26.0227 20.3541 26.365 18.9664 25.5538 18.1551ZM6.768 24.4758L5.78237 21.2325C5.6346 20.745 5.25525 20.3656 4.7678 20.2174L1.52444 19.2323L4.14983 16.6069C5.57574 18.7234 7.74003 20.3032 10.2705 20.9735L6.768 24.4758ZM5.25063 15.5059C1.42338 9.41115 5.87617 1.52341 13.0003 1.52341C20.182 1.52341 24.5428 9.46585 20.75 15.5059C17.1588 21.2331 8.84129 21.2324 5.25063 15.5059ZM21.2329 20.2173C20.7454 20.3656 20.366 20.745 20.2178 21.2324L19.2327 24.4758L15.7303 20.9734C18.2608 20.3031 20.425 18.7233 21.851 16.6068L24.4764 19.2322L21.2329 20.2173Z" fill="#322D2D"/>
<path d="M12.9981 3.04626C7.90063 3.04626 4.21537 7.99427 5.71212 12.8871C6.98736 17.0657 11.511 19.286 15.5575 17.8382C18.5048 16.7834 20.6153 13.9638 20.6153 10.6634C20.6153 6.46329 17.1982 3.04626 12.9981 3.04626ZM8.89002 15.1595C4.77676 11.4052 7.48269 4.56968 12.9981 4.56968C16.7518 4.56968 19.6092 7.94725 19.0162 11.6191C18.2701 16.3785 12.4771 18.442 8.89002 15.1595Z" fill="#322D2D"/>
<path d="M15.3115 8.60324L11.954 11.0954L10.7909 9.85614C10.503 9.54931 10.021 9.53403 9.71422 9.82196C9.4075 10.1098 9.39216 10.5919 9.6801 10.8986L11.3076 12.6328C11.5725 12.9151 12.0067 12.9535 12.317 12.7232L16.2195 9.82653C16.5573 9.57582 16.6279 9.09867 16.3772 8.76087C16.1264 8.42312 15.6493 8.35253 15.3115 8.60324Z" fill="#322D2D"/>
</svg>
