<svg width="25" height="25" viewBox="0 0 25 25" fill="none" xmlns="http://www.w3.org/2000/svg">
<path fill-rule="evenodd" clip-rule="evenodd" d="M16.6676 3.37773H8.33447C5.45806 3.37773 3.12626 5.70953 3.12626 8.58594V16.9191C3.12626 19.7955 5.45806 22.1273 8.33447 22.1273H16.6676C19.544 22.1273 21.8758 19.7955 21.8758 16.9191V8.58594C21.8758 5.70953 19.544 3.37773 16.6676 3.37773ZM20.0529 16.9191C20.0472 18.7863 18.5349 20.2987 16.6676 20.3044H8.33447C6.46717 20.2987 4.95485 18.7863 4.94913 16.9191V8.58594C4.95485 6.71864 6.46717 5.20632 8.33447 5.2006H16.6676C18.5349 5.20632 20.0472 6.71864 20.0529 8.58594V16.9191ZM17.4488 8.84635C18.0241 8.84635 18.4905 8.37998 18.4905 7.8047C18.4905 7.22943 18.0241 6.76306 17.4488 6.76306C16.8735 6.76306 16.4072 7.22943 16.4072 7.8047C16.4072 8.37998 16.8735 8.84635 17.4488 8.84635ZM12.501 8.06512C9.91226 8.06512 7.81365 10.1637 7.81365 12.7525C7.81365 15.3413 9.91226 17.4399 12.501 17.4399C15.0898 17.4399 17.1884 15.3413 17.1884 12.7525C17.1912 11.5085 16.6982 10.3146 15.8186 9.43496C14.9389 8.5553 13.7451 8.06234 12.501 8.06512ZM9.63652 12.7525C9.63652 14.3346 10.919 15.617 12.501 15.617C14.0831 15.617 15.3656 14.3346 15.3656 12.7525C15.3656 11.1705 14.0831 9.88799 12.501 9.88799C10.919 9.88799 9.63652 11.1705 9.63652 12.7525Z" fill="white"/>
</svg>
