<svg width="46" height="46" viewBox="0 0 46 46" fill="none" xmlns="http://www.w3.org/2000/svg">
<path d="M22.3052 42.1447C18.5184 42.145 14.8166 41.0225 11.6678 38.9189C8.51909 36.8154 6.06484 33.8254 4.61545 30.327C3.16607 26.8286 2.78665 22.9789 3.52519 19.2649C4.26372 15.5508 6.08703 12.1392 8.76454 9.46145C11.4421 6.78368 14.8535 4.96004 18.5675 4.22114C22.2814 3.48225 26.1311 3.86129 29.6296 5.31033C33.1282 6.75938 36.1185 9.21334 38.2223 12.3619C40.3262 15.5104 41.4491 19.2121 41.4491 22.9989C41.4438 28.0747 39.4252 32.9412 35.8363 36.5305C32.2473 40.1199 27.381 42.1389 22.3052 42.1447ZM22.3052 5.10009C18.7641 5.09972 15.3025 6.14946 12.3582 8.11656C9.41377 10.0837 7.11887 12.8797 5.76369 16.1512C4.40852 19.4226 4.05394 23.0225 4.7448 26.4955C5.43567 29.9684 7.14094 33.1585 9.64496 35.6623C12.149 38.166 15.3392 39.871 18.8123 40.5615C22.2853 41.252 25.8852 40.897 29.1565 39.5415C32.4278 38.186 35.2236 35.8908 37.1904 32.9462C39.1572 30.0016 40.2066 26.5399 40.2058 22.9989C40.2009 18.2527 38.3134 13.7023 34.9575 10.346C31.6016 6.98975 27.0514 5.10179 22.3052 5.09636V5.10009Z" fill="#1A1A1A"/>
<path d="M7.80878 34.4006C6.64042 34.4253 5.47531 34.2685 4.35508 33.9356C3.76728 33.7818 3.21711 33.5094 2.73833 33.1353C2.25956 32.7612 1.86228 32.2932 1.57087 31.76C0.641549 29.8895 1.799 26.7491 3.35801 24.4666C3.45256 24.3343 3.59516 24.2444 3.75523 24.216C3.91531 24.1876 4.08013 24.2231 4.21436 24.3148C4.34859 24.4065 4.44155 24.5472 4.47332 24.7066C4.50509 24.8661 4.47313 25.0316 4.3843 25.1677C2.83026 27.4391 2.10235 30.035 2.68418 31.2067C2.90461 31.5901 3.20039 31.9249 3.55368 32.1909C3.90698 32.457 4.31048 32.6487 4.73986 32.7546C9.00291 34.1426 17.6987 32.0322 26.3777 27.5069C38.5191 21.1751 44.9019 13.3558 43.249 10.0252C42.5926 8.70548 40.5139 7.99497 37.5345 8.06584C37.4528 8.06784 37.3716 8.05374 37.2954 8.02435C37.2192 7.99496 37.1496 7.95085 37.0905 7.89454C36.971 7.78082 36.9017 7.62431 36.8976 7.45945C36.8936 7.29459 36.9552 7.13487 37.0689 7.01544C37.1826 6.89601 37.3391 6.82665 37.504 6.82261C41.0342 6.73682 43.4715 7.67484 44.3623 9.47131C46.5883 13.9507 38.9412 22.3562 26.9521 28.6084C19.8918 32.2902 12.7488 34.4006 7.80878 34.4006Z" fill="#1A1A1A"/>
<path d="M39.4392 10.4214C39.3469 10.4214 39.2559 10.4009 39.1725 10.3613C39.0892 10.3217 39.0157 10.2641 38.9574 10.1926L37.0341 7.83732C36.9808 7.77208 36.9413 7.69668 36.918 7.6157C36.8947 7.53472 36.8881 7.44984 36.8987 7.36624C36.9092 7.28263 36.9366 7.20204 36.9792 7.12936C37.0219 7.05667 37.0788 6.99342 37.1467 6.94343L39.6505 5.09785C39.7163 5.04941 39.7909 5.01438 39.8702 4.99479C39.9495 4.97519 40.0319 4.9714 40.1126 4.98364C40.1934 4.99587 40.271 5.0239 40.3409 5.06611C40.4108 5.10831 40.4717 5.16388 40.5202 5.22964C40.5686 5.29539 40.6036 5.37004 40.6232 5.44933C40.6428 5.52862 40.6466 5.611 40.6344 5.69175C40.6222 5.7725 40.5941 5.85006 40.5519 5.91998C40.5097 5.9899 40.4541 6.05083 40.3884 6.09928L38.4123 7.55697L39.9222 9.40628C39.9966 9.49735 40.0437 9.60769 40.058 9.72448C40.0722 9.84126 40.0531 9.95969 40.0027 10.066C39.9523 10.1723 39.8728 10.2621 39.7733 10.325C39.6739 10.388 39.5587 10.4214 39.441 10.4214H39.4392Z" fill="#1A1A1A"/>
<path d="M21.6125 35.6192C21.1942 35.6211 20.7798 35.5393 20.3936 35.3786C18.9962 34.7856 18.1775 33.4423 17.6199 32.3389L17.5826 32.2656C17.2488 31.6017 16.9032 30.9148 16.353 30.7165C16.1599 30.657 15.9605 30.6201 15.7588 30.6065C15.5546 30.5878 15.3518 30.5565 15.1515 30.5126C14.068 30.264 13.1374 29.4173 12.3144 27.9199L12.0838 27.4847C11.7336 26.6608 11.2009 25.9271 10.526 25.3389C10.3151 25.1921 10.0762 25.0905 9.82414 25.0405C9.57212 24.9904 9.31247 24.993 9.06149 25.048C8.93108 25.0723 8.80782 25.1256 8.70085 25.2041C8.59388 25.2825 8.50596 25.3841 8.4436 25.5011C8.19496 26.0028 8.46536 26.6431 8.77555 27.3853C9.12427 28.2189 9.52149 29.1637 9.1827 30.1353C8.69411 31.5296 6.99897 32.007 5.57733 31.7558C5.44053 31.7326 5.31432 31.6674 5.21617 31.5694C5.12251 31.4709 5.0637 31.3444 5.04877 31.2093C5.03383 31.0742 5.06359 30.9379 5.13348 30.8214C5.20336 30.7048 5.30953 30.6143 5.43573 30.5638C5.56192 30.5134 5.70119 30.5056 5.83219 30.5418C6.70867 30.6829 7.75485 30.4498 8.00785 29.7294C8.18874 29.2085 7.91647 28.5576 7.62804 27.8683C7.25507 26.9762 6.83175 25.9649 7.3278 24.9554C7.46979 24.6766 7.67155 24.4325 7.91868 24.2406C8.1658 24.0487 8.45222 23.9137 8.75752 23.8452C9.18365 23.746 9.62596 23.7383 10.0553 23.8225C10.4846 23.9067 10.8912 24.081 11.2483 24.3338C12.0863 25.0265 12.7491 25.9071 13.1828 26.9041L13.406 27.3225C14.0462 28.488 14.7114 29.1357 15.4343 29.3005C15.5867 29.3329 15.741 29.3561 15.8962 29.3701C16.1976 29.3922 16.4952 29.4517 16.782 29.5472C17.7933 29.9128 18.2931 30.9067 18.6953 31.7049L18.7313 31.7776C19.1932 32.6914 19.8552 33.7972 20.8809 34.233C21.1381 34.3354 21.4138 34.3833 21.6905 34.3736C21.9672 34.364 22.2389 34.2971 22.4884 34.177C22.6407 34.1092 22.7764 34.0089 22.8859 33.8832C22.9955 33.7575 23.0762 33.6093 23.1224 33.4491C23.2735 32.8424 22.8875 32.1705 22.4791 31.46C22.3548 31.2411 22.2273 31.0248 22.1161 30.8054C21.4518 29.4419 21.2578 27.8968 21.5642 26.4114C21.8706 24.9259 22.6603 23.5838 23.81 22.5945C23.9181 22.5068 24.0288 22.4217 24.1394 22.3365C24.4477 22.1298 24.7194 21.873 24.9432 21.5769C25.1784 21.0866 25.2876 20.5454 25.2608 20.0023C25.2703 19.6297 25.3052 19.2581 25.3652 18.8903C25.4824 18.3522 25.6564 17.8282 25.8843 17.3269C26.1073 16.8557 26.2652 16.3563 26.3536 15.8425C26.3717 15.6055 26.3355 15.3676 26.2477 15.1467C26.1599 14.9259 26.0228 14.728 25.847 14.5682C25.7868 14.5066 25.7107 14.463 25.6271 14.4424C25.5435 14.4217 25.4559 14.4248 25.3739 14.4513C25.103 14.6015 24.8779 14.8224 24.7225 15.0903C24.4643 15.4885 24.12 15.8235 23.7148 16.0706C23.3794 16.2325 23.0177 16.3331 22.6469 16.3677C21.1012 16.5799 19.5564 16.7954 18.0128 17.0142C16.1069 17.2809 14.8761 16.8855 14.3552 15.8363C14.1354 15.2968 14.0618 14.7088 14.142 14.1318C14.1867 13.5102 14.3042 11.861 15.6003 11.3724C16.6496 10.9852 17.6205 11.6584 18.3285 12.1495L18.4653 12.2439C19.3088 12.8289 20.8461 13.2957 21.4721 12.4441C21.5255 12.3689 21.5746 12.2794 21.625 12.1905C21.7428 11.9587 21.8942 11.7457 22.0744 11.5583C22.5467 11.174 23.1335 10.9579 23.7422 10.9441C23.8323 10.9336 23.9218 10.923 24.0101 10.91C24.5358 10.8748 25.0472 10.7233 25.5072 10.4663C25.9672 10.2094 26.3644 9.85348 26.67 9.42429C27.2593 8.47073 27.2916 7.03107 26.7527 5.36949C26.7221 5.29058 26.708 5.20627 26.7111 5.12171C26.7143 5.03716 26.7347 4.95413 26.7711 4.87773C26.8074 4.80133 26.859 4.73316 26.9227 4.6774C26.9863 4.62163 27.0607 4.57945 27.1412 4.55343C27.2217 4.52741 27.3067 4.5181 27.3909 4.52608C27.4752 4.53405 27.5569 4.55914 27.6311 4.59981C27.7053 4.64048 27.7704 4.69587 27.8224 4.76259C27.8745 4.8293 27.9124 4.90595 27.9338 4.98781C28.3938 6.41256 28.7313 8.45208 27.7249 10.0782C27.3275 10.6644 26.8037 11.154 26.1919 11.5108C25.5802 11.8677 24.8962 12.0827 24.1904 12.1401C24.0878 12.155 23.9884 12.1669 23.8883 12.1787C23.5507 12.1779 23.2199 12.2734 22.9347 12.454C22.8444 12.5597 22.7676 12.6763 22.706 12.8009C22.6364 12.9292 22.5601 13.0537 22.4772 13.1739C21.4111 14.6247 19.2516 14.3034 17.7567 13.2677L17.618 13.172C17.0542 12.781 16.4724 12.3776 16.0317 12.538C15.6662 12.6766 15.4511 13.2261 15.3808 14.2163C15.3259 14.5751 15.3562 14.9418 15.4691 15.2867C15.7861 15.9251 16.9336 15.9084 17.8381 15.784C19.3797 15.5665 20.9288 15.3489 22.471 15.1369C22.6968 15.1193 22.9182 15.0645 23.1262 14.9747C23.3661 14.8071 23.57 14.5932 23.726 14.3456C24.0187 13.8663 24.455 13.4915 24.973 13.2746C25.2531 13.1805 25.5529 13.1611 25.8428 13.2183C26.1326 13.2756 26.4026 13.4074 26.6259 13.6009C26.9648 13.8929 27.2288 14.2618 27.3959 14.6768C27.563 15.0918 27.6283 15.5407 27.5863 15.9861C27.4882 16.615 27.3013 17.2267 27.0312 17.8031C26.838 18.2247 26.6887 18.665 26.5855 19.1171C26.5366 19.4299 26.5083 19.7455 26.5009 20.062C26.5273 20.8229 26.3505 21.5771 25.9887 22.247C25.6902 22.6676 25.3196 23.0321 24.8941 23.3236C24.7934 23.4013 24.6933 23.4778 24.5963 23.5574C23.661 24.3619 23.0186 25.4537 22.7695 26.662C22.5204 27.8703 22.6786 29.1271 23.2194 30.236C23.3232 30.4393 23.4389 30.6394 23.5545 30.8408C24.0443 31.6918 24.5994 32.6566 24.3271 33.7494C24.239 34.085 24.078 34.397 23.8556 34.6634C23.6332 34.9297 23.3549 35.1438 23.0404 35.2904C22.596 35.5082 22.1074 35.6207 21.6125 35.6192Z" fill="#1A1A1A"/>
<path d="M36.4999 35.5135C36.3813 35.5133 36.2653 35.4792 36.1655 35.4152C35.0304 34.6892 34.277 33.1376 34.9807 31.7993C35.1962 31.4204 35.4711 31.0785 35.795 30.7867C35.9236 30.6586 36.0529 30.5318 36.1679 30.3951C36.3544 30.1725 36.3737 30.0395 36.3681 30.0159C36.2737 29.9615 36.1667 29.9326 36.0577 29.9321C35.9487 29.9315 35.8415 29.9594 35.7465 30.0128C35.104 30.2766 34.3863 30.2919 33.7331 30.0558C33.0799 29.8197 32.5379 29.349 32.2126 28.7354C32.0634 28.3974 31.9915 28.0303 32.0022 27.661C32.013 27.2917 32.1061 26.9294 32.2748 26.6007C32.4205 26.2872 32.6355 26.0108 32.9034 25.7923C33.1714 25.5739 33.4855 25.419 33.822 25.3395C34.1352 25.2799 34.4547 25.259 34.773 25.2773C35.0402 25.3061 35.3105 25.2783 35.5662 25.1959C35.7319 25.0803 35.8662 24.9253 35.957 24.7448C36.0477 24.5643 36.092 24.364 36.0859 24.1621C36.1268 23.8758 36.0965 23.5839 35.9977 23.3121C35.8989 23.0403 35.7347 22.797 35.5196 22.6037C35.161 22.2931 34.7698 22.0221 34.3528 21.7956C34.1216 21.6583 33.886 21.5184 33.6547 21.3655C33.5304 21.2834 33.4241 21.2188 33.329 21.1616C32.5296 20.678 32.3071 20.3143 32.4712 18.9803C32.6022 18.1701 32.9249 17.4029 33.4123 16.7425C33.4931 16.6182 33.5758 16.4858 33.661 16.3515C34.8507 14.4065 34.8725 12.9264 34.9042 10.8813C34.9079 10.6053 34.9123 10.3218 34.9197 10.0297C34.9206 9.94772 34.9379 9.86676 34.9706 9.7916C35.0033 9.71644 35.0508 9.64862 35.1102 9.59216C35.1696 9.53569 35.2398 9.49173 35.3165 9.46289C35.3933 9.43404 35.475 9.4209 35.5569 9.42423C35.7217 9.42846 35.878 9.49796 35.9915 9.61745C36.1051 9.73693 36.1665 9.89661 36.1623 10.0614C36.1555 10.3492 36.1512 10.6283 36.1474 10.8999C36.1157 12.9755 36.089 14.7683 34.7227 17.0024C34.6369 17.1435 34.5499 17.2796 34.4647 17.4139C34.0793 17.9187 33.8203 18.5085 33.7095 19.1339C33.6493 19.387 33.6417 19.6497 33.6871 19.9059C33.777 19.9798 33.8738 20.045 33.9761 20.1005C34.0849 20.1658 34.2067 20.2403 34.3447 20.3317C34.5567 20.4716 34.7761 20.6015 34.9918 20.7296C35.4872 21 35.9509 21.3248 36.3743 21.698C36.7206 22.0169 36.9874 22.4125 37.1534 22.853C37.3194 23.2935 37.38 23.7667 37.3304 24.2349C37.3347 24.6633 37.2215 25.0847 37.003 25.4532C36.7846 25.8218 36.4693 26.1234 36.0915 26.3253C35.6664 26.4946 35.2076 26.5617 34.7519 26.5212C34.5307 26.507 34.3086 26.5178 34.0899 26.5535C33.9363 26.5943 33.7939 26.6691 33.6732 26.7726C33.5526 26.876 33.4568 27.0053 33.393 27.1509C33.3079 27.3126 33.2593 27.4911 33.2508 27.6738C33.2423 27.8564 33.2741 28.0386 33.3439 28.2076C33.5312 28.5303 33.8282 28.7749 34.1809 28.8967C34.5336 29.0185 34.9183 29.0093 35.2647 28.8709C35.6126 28.6974 36.0081 28.6438 36.3897 28.7183C36.7712 28.7929 37.1174 28.9914 37.3745 29.283C37.5237 29.4856 37.947 30.2223 37.1227 31.1982C36.9841 31.3629 36.83 31.5171 36.6752 31.6706C36.4453 31.8741 36.2475 32.1111 36.0884 32.3737C35.7309 33.0543 36.1891 33.9538 36.8399 34.3703C36.9531 34.4428 37.0397 34.5501 37.0868 34.6759C37.1339 34.8018 37.1389 34.9396 37.1011 35.0686C37.0633 35.1976 36.9847 35.3108 36.8771 35.3914C36.7695 35.4719 36.6386 35.5154 36.5042 35.5153L36.4999 35.5135Z" fill="#1A1A1A"/>
<path d="M28.2829 41.152C28.1367 41.1519 27.9953 41.1002 27.8834 41.0061C27.7715 40.9119 27.6964 40.7814 27.6713 40.6374C27.6165 40.3208 27.5031 40.0172 27.3368 39.7422C26.9113 39.0823 26.3025 38.5608 25.5851 38.2416C25.1547 38.0041 24.6679 37.8877 24.1765 37.9047C23.4811 38.0556 22.8348 38.3788 22.2968 38.8446C21.4265 39.4581 20.4462 40.1562 19.2372 39.9157C18.8762 39.8309 18.5285 39.6968 18.2041 39.5172L15.8115 38.3361C15.6629 38.2497 15.4968 38.1975 15.3255 38.1835C15.1542 38.1696 14.9819 38.1941 14.8212 38.2553C14.6013 38.3722 14.4081 38.5335 14.254 38.7292C14.0998 38.9248 13.9882 39.1504 13.9261 39.3916C13.9059 39.4746 13.8689 39.5525 13.8173 39.6205C13.7657 39.6885 13.7007 39.7452 13.6263 39.787C13.5518 39.8287 13.4696 39.8547 13.3846 39.8633C13.2997 39.8719 13.2139 39.8629 13.1326 39.8369C13.0513 39.8109 12.9762 39.7684 12.9121 39.7121C12.8479 39.6558 12.796 39.5869 12.7596 39.5097C12.7233 39.4324 12.7032 39.3485 12.7007 39.2632C12.6982 39.1779 12.7133 39.0929 12.745 39.0137C12.8591 38.6009 13.0604 38.2174 13.3354 37.889C13.6103 37.5607 13.9525 37.2951 14.3388 37.1103C14.6641 36.9778 15.0146 36.9191 15.3653 36.9385C15.7159 36.9578 16.0579 37.0547 16.3666 37.2222L18.7666 38.4095C18.9924 38.5368 19.2337 38.6341 19.4846 38.6992C20.164 38.8359 20.8223 38.3691 21.5819 37.8289C22.2927 37.2295 23.1492 36.8283 24.0647 36.6658C24.7831 36.6242 25.499 36.7826 26.1328 37.1234C27.0652 37.5475 27.8533 38.2347 28.4004 39.1007C28.6469 39.5076 28.8155 39.9568 28.8977 40.4254C28.9118 40.5058 28.91 40.5883 28.8922 40.668C28.8745 40.7477 28.8412 40.8232 28.7942 40.89C28.7473 40.9569 28.6876 41.0138 28.6187 41.0576C28.5497 41.1014 28.4728 41.1312 28.3923 41.1452C28.3561 41.1503 28.3195 41.1526 28.2829 41.152Z" fill="#1A1A1A"/>
</svg>
